HIERARCHY
ROOT root
{
	OFFSET 0.000000 0.000000 0.000000
	CHANNELS 6 Xposition Yposition Zposition Zrotation Yrotation Xrotation
	JOINT lhip
	{
		OFFSET 0.058581 -0.082280 -0.017664
		CHANNELS 3 Zrotation Yrotation Xrotation
		JOINT lknee
		{
			OFFSET 0.043451 -0.386469 0.008037
			CHANNELS 3 Zrotation Yrotation Xrotation
			JOINT lankle
			{
				OFFSET -0.014790 -0.426874 -0.037428
				CHANNELS 3 Zrotation Yrotation Xrotation
				JOINT ltoe
				{
					OFFSET 0.041054 -0.060286 0.122042
					CHANNELS 3 Zrotation Yrotation Xrotation
					End Site
					{
						OFFSET 0.000000 0.000000 0.000000
					}
				}
			}
		}
	}
	JOINT rhip
	{
		OFFSET -0.060310 -0.090513 -0.013543
		CHANNELS 3 Zrotation Yrotation Xrotation
		JOINT rknee
		{
			OFFSET -0.043257 -0.383688 -0.004843
			CHANNELS 3 Zrotation Yrotation Xrotation
			JOINT rankle
			{
				OFFSET 0.019056 -0.420046 -0.034562
				CHANNELS 3 Zrotation Yrotation Xrotation
				JOINT rtoe
				{
					OFFSET -0.034840 -0.062106 0.130323
					CHANNELS 3 Zrotation Yrotation Xrotation
					End Site
					{
						OFFSET 0.000000 0.000000 0.000000
					}
				}
			}
		}
	}
	JOINT lowerback
	{
		OFFSET 0.004439 0.124404 -0.038385
		CHANNELS 3 Zrotation Yrotation Xrotation
		JOINT upperback
		{
			OFFSET 0.004488 0.137956 0.026820
			CHANNELS 3 Zrotation Yrotation Xrotation
			JOINT chest
			{
				OFFSET -0.002265 0.056032 0.002855
				CHANNELS 3 Zrotation Yrotation Xrotation
				JOINT lowerneck
				{
					OFFSET -0.013390 0.211636 -0.033468
					CHANNELS 3 Zrotation Yrotation Xrotation
					JOINT upperneck
					{
						OFFSET 0.010113 0.088937 0.050410
						CHANNELS 3 Zrotation Yrotation Xrotation
						End Site
						{
							OFFSET 0.000000 0.000000 0.000000
						}
					}
				}
				JOINT lclavicle
				{
					OFFSET 0.071702 0.114000 -0.018898
					CHANNELS 3 Zrotation Yrotation Xrotation
					JOINT lshoulder
					{
						OFFSET 0.122921 0.045205 -0.019046
						CHANNELS 3 Zrotation Yrotation Xrotation
						JOINT lelbow
						{
							OFFSET 0.255332 -0.015649 -0.022946
							CHANNELS 3 Zrotation Yrotation Xrotation
							JOINT lwrist
							{
								OFFSET 0.265709 0.012698 -0.007375
								CHANNELS 3 Zrotation Yrotation Xrotation
								End Site
								{
									OFFSET 0.000000 0.000000 0.000000
								}
							}
						}
					}
				}
				JOINT rclavicle
				{
					OFFSET -0.082954 0.112472 -0.023707
					CHANNELS 3 Zrotation Yrotation Xrotation
					JOINT rshoulder
					{
						OFFSET -0.113228 0.046853 -0.008472
						CHANNELS 3 Zrotation Yrotation Xrotation
						JOINT relbow
						{
							OFFSET -0.260127 -0.014369 -0.031269
							CHANNELS 3 Zrotation Yrotation Xrotation
							JOINT rwrist
							{
								OFFSET -0.269108 0.006794 -0.006027
								CHANNELS 3 Zrotation Yrotation Xrotation
								End Site
								{
									OFFSET 0.000000 0.000000 0.000000
								}
							}
						}
					}
				}
			}
		}
	}
}
MOTION
Frames: 13
Frame Time: 0.033333
0.122030 -0.603358 0.952098 -4.669065 -7.421720 85.794623 -6.583253 -0.457739 -14.668046 -10.201388 -3.411020 34.933467 3.529614 6.310895 -22.226753 0.000000 -0.000000 0.000000 -13.463808 -1.474894 -24.477443 -4.853525 11.450635 47.052483 4.068849 -11.192764 -18.970061 0.000000 -0.000000 0.000000 4.854850 0.655066 19.333076 0.445520 0.806732 -0.453776 -0.069174 1.838150 7.604234 -7.837930 -11.136412 16.273800 2.562433 -11.152233 -6.790763 -11.453786 11.298006 1.871104 -62.762297 4.952530 1.466046 10.271641 -44.804695 17.366770 5.813752 -8.429983 -3.420956 13.808983 2.424891 -0.739637 48.257732 2.797727 5.159182 -7.790621 38.525431 12.187885 -2.736211 3.304866 16.301116 
0.115841 -0.612210 0.953954 -4.046046 -7.177621 84.063889 -6.475407 -0.586416 -12.180954 -9.972136 -4.083617 34.920501 3.313224 7.190625 -22.826590 0.000000 -0.000000 0.000000 -13.044628 -1.299603 -21.928259 -4.836697 10.819921 47.426707 4.154466 -11.918424 -19.664175 0.000000 -0.000000 0.000000 4.092933 0.755380 17.730339 0.789012 -0.150748 1.423398 -0.045200 1.270796 7.997635 -8.392220 -15.124611 15.975749 4.061799 -15.562589 -9.804428 -11.676828 11.156425 1.953455 -63.162162 4.545992 1.583213 9.461762 -41.897132 17.322863 5.671101 -7.887548 -3.860541 14.080595 2.141190 -1.449160 49.832876 1.091210 5.476902 -7.653196 38.289787 12.501102 -2.843512 2.725675 15.648042 
0.107851 -0.619765 0.955926 -3.447202 -6.476111 82.336677 -5.795964 -0.610904 -9.805455 -9.676601 -4.797720 35.074964 2.991658 8.194453 -23.471251 0.000000 -0.000000 0.000000 -12.340808 -1.159273 -19.376875 -4.696813 9.385293 47.685980 4.093016 -12.338642 -20.192464 0.000000 -0.000000 0.000000 3.507705 0.812024 16.895630 1.100693 -1.089706 2.862702 0.106893 0.764635 7.700025 -8.924681 -18.895716 15.935261 5.845857 -19.244902 -12.256469 -11.758056 10.313004 2.591310 -63.762042 4.491119 1.420061 8.550883 -38.870235 17.694642 5.357749 -7.130655 -3.852579 14.107634 2.171301 -1.927615 51.500953 -1.136165 5.136372 -6.929736 38.297170 13.715498 -2.772547 2.326240 14.915472 
0.098479 -0.625351 0.957758 -2.925736 -5.500031 80.969906 -4.701866 -0.841937 -8.116637 -9.417560 -5.493302 35.576240 2.685321 9.131371 -24.094952 0.000000 -0.000000 0.000000 -11.493993 -1.308798 -17.557696 -4.153799 7.436940 48.227593 4.047851 -12.706158 -20.089168 0.000000 -0.000000 0.000000 2.777124 0.776005 16.012724 1.561781 -2.059325 4.515859 0.284429 0.192141 7.254979 -8.812558 -21.681302 15.205236 7.355223 -22.264854 -13.778138 -11.987128 9.751269 2.938971 -64.226139 4.368483 1.341845 7.389941 -36.045941 18.870395 3.475963 -6.633496 -3.524642 14.331247 2.072397 -2.307283 52.887153 -2.531905 5.100185 -6.357977 38.237911 15.306038 -1.988980 1.788923 14.328868 
0.087795 -0.630697 0.960081 -2.868543 -4.493140 79.636173 -3.387678 -0.621480 -6.133523 -9.033074 -6.165989 35.555984 2.572070 9.874323 -24.607381 0.000000 -0.000000 0.000000 -10.592878 -1.724673 -16.047237 -3.387088 5.157301 48.862568 3.821068 -13.015888 -20.042067 0.000000 -0.000000 0.000000 2.019114 0.657734 15.805452 1.782842 -2.747936 5.283248 0.499801 -0.184573 6.796672 -8.465295 -23.406469 15.165562 8.543778 -23.948240 -14.993871 -12.380024 9.157764 3.370358 -64.200628 4.435507 1.234348 5.985655 -33.443700 20.559989 1.686063 -6.271780 -2.656196 14.753630 2.014762 -2.086015 54.202332 -3.671586 4.877464 -5.843335 38.181418 16.790424 -1.464671 1.441725 14.189569 
0.076311 -0.634305 0.962577 -3.334966 -3.449490 78.537891 -1.971786 -0.392353 -4.294045 -8.522252 -7.015393 35.242303 2.390087 10.573984 -24.794690 0.000000 -0.000000 0.000000 -9.381130 -1.947441 -15.167055 -2.885130 3.063446 49.666855 3.232199 -13.426053 -19.338278 0.000000 -0.000000 0.000000 1.333240 0.585001 15.896737 1.936003 -3.040918 5.766920 0.740768 -0.483256 6.275893 -7.781935 -24.258446 14.981691 9.152798 -24.582713 -15.724874 -12.858734 8.645313 3.589486 -64.021788 4.301695 1.256088 4.515551 -31.045994 22.169566 0.370899 -5.925668 -1.814873 15.134205 1.849647 -1.836309 55.467200 -4.501729 4.880587 -5.321544 38.051025 17.923548 -1.659531 1.473704 13.672759 
0.064312 -0.636667 0.965105 -4.449778 -2.502754 77.781568 -0.777920 -0.329562 -2.729949 -7.778089 -7.955812 34.912275 2.259015 11.624487 -25.097504 0.000000 -0.000000 0.000000 -8.005495 -1.758375 -14.809503 -2.326147 1.516110 50.442385 2.814063 -13.329961 -18.336179 0.000000 -0.000000 0.000000 0.676601 0.599911 15.798852 2.085155 -2.898813 6.294473 0.925544 -0.527302 5.886396 -6.761992 -24.411247 14.243207 9.671283 -24.918275 -16.014824 -13.389183 8.268411 3.387593 -63.974311 4.007298 1.534296 3.654655 -29.173443 22.783571 -0.230076 -5.452923 -1.271770 15.577383 1.611740 -1.723420 56.575947 -5.008027 4.989050 -5.387743 38.360963 18.011295 -1.943635 1.417391 12.270858 
0.051563 -0.637162 0.967275 -6.170442 -1.555016 77.706133 0.322687 -0.738969 -1.890050 -6.780710 -8.410976 34.558529 1.962339 13.219909 -25.275393 0.000000 -0.000000 0.000000 -6.366513 -1.096865 -14.970331 -1.969974 0.135826 50.558661 2.582780 -13.025580 -17.848415 0.000000 -0.000000 0.000000 0.073319 0.612393 15.486307 2.290288 -2.428966 6.263873 1.146547 -0.455851 5.571533 -5.692693 -24.002001 13.172482 9.622823 -25.162461 -15.667088 -13.734178 8.384164 3.213811 -64.508785 3.731433 1.813810 3.744738 -28.330355 22.842056 -0.785147 -4.910921 -0.980448 15.914671 1.296423 -1.496779 57.460483 -5.069384 5.424522 -5.388906 38.339786 18.792173 -1.870652 1.436764 11.459862 
0.038189 -0.636182 0.968908 -8.266952 -0.575631 78.256652 1.355524 -1.767048 -1.762582 -5.619154 -8.245529 34.321754 1.911540 15.460328 -25.500981 0.000000 -0.000000 0.000000 -4.551513 -0.225407 -15.151651 -1.613346 -0.880683 49.339783 2.247245 -12.701690 -17.894842 0.000000 -0.000000 0.000000 -0.382788 0.720546 14.737020 2.501762 -1.903772 5.902267 1.442545 -0.219994 5.308183 -4.752290 -23.419585 12.110853 9.505452 -24.856108 -15.433597 -13.880008 8.832541 3.163793 -65.410991 3.422418 2.132587 4.183506 -28.374816 22.460548 -0.243433 -4.697241 -1.682643 16.131228 1.010133 -1.223950 58.063502 -4.731309 5.970380 -5.220262 37.916973 20.028849 -2.339268 1.698945 10.660426 
0.024261 -0.634045 0.970077 -10.304275 0.520225 79.234958 2.430004 -3.151009 -2.350226 -4.160376 -7.534388 34.575740 1.523345 17.699854 -25.598542 0.000000 -0.000000 0.000000 -2.682932 0.658492 -15.040652 -1.150388 -1.601387 47.066712 1.978585 -11.973935 -18.929729 0.000000 -0.000000 0.000000 -0.656084 0.909856 13.722774 2.878328 -1.500331 5.355660 1.783558 -0.083054 5.102919 -3.862645 -22.861307 10.878931 9.292899 -24.739708 -15.243540 -13.976875 9.405551 3.186393 -66.334707 3.160075 2.592748 4.546614 -29.338696 22.005122 0.496020 -4.592048 -2.757943 16.358323 0.786541 -0.933681 58.188426 -4.129214 6.576985 -4.798771 37.349328 21.736174 -2.943835 2.146565 10.487100 
0.010099 -0.630222 0.970406 -12.440291 1.631487 80.783408 3.641784 -4.487336 -3.889541 -2.741708 -6.672600 35.487126 1.472097 19.693753 -25.524305 0.000000 -0.000000 0.000000 -0.793565 1.550545 -15.244600 -0.533809 -1.811852 44.176739 1.144450 -11.140227 -20.520792 0.000000 -0.000000 0.000000 -0.790842 1.082534 12.148121 3.244467 -1.099416 4.741707 2.100139 0.089993 4.860871 -3.177718 -22.309518 9.986746 9.171028 -24.489136 -15.315312 -14.039453 9.966276 3.519696 -66.927253 2.863211 2.952055 4.696521 -31.291430 22.161435 0.195297 -4.423486 -4.076031 16.587999 0.697469 -0.160315 58.163086 -2.897792 6.925303 -4.559898 36.804340 23.319361 -3.270069 2.346819 9.684191 
-0.003293 -0.624641 0.970186 -14.638044 2.804489 82.533749 5.006858 -5.686570 -5.960489 -1.428214 -5.896972 36.995260 1.780277 21.649887 -24.867736 0.000000 -0.000000 0.000000 1.032438 2.440522 -16.728112 0.433088 -2.407031 42.345264 -0.144715 -11.272032 -19.954615 0.000000 -0.000000 0.000000 -0.844228 1.332694 10.527296 3.899079 -0.363816 4.224550 2.383450 0.101616 4.411275 -2.683216 -22.194084 8.973935 8.858337 -24.152992 -14.876015 -14.168103 10.377219 3.736689 -67.223725 2.624715 3.690080 4.587060 -33.753482 23.271865 0.205454 -4.327006 -4.415359 16.700703 0.876194 0.500335 57.817109 -1.715537 7.480807 -4.606938 36.453178 24.173604 -3.382161 2.323656 8.756433 
-0.016006 -0.619066 0.970900 -16.653683 4.123507 83.387053 6.248951 -6.747275 -7.012591 0.368263 -5.616896 38.502083 1.716552 23.008619 -23.632374 0.000000 -0.000000 0.000000 2.961181 4.061223 -17.551487 1.203254 -3.042007 41.308727 -0.156616 -11.055167 -19.320923 0.000000 -0.000000 0.000000 -0.739140 1.381347 9.885819 4.671214 0.503520 4.180831 2.771249 0.134378 3.663548 -2.041577 -22.053546 8.076329 8.205317 -23.788981 -14.791768 -14.386473 10.425842 3.980314 -67.473632 2.126197 4.685435 4.803573 -36.154481 24.171046 0.442622 -4.856676 -4.657263 16.831054 1.492139 0.973959 57.031877 -0.255787 7.999108 -4.671204 35.641162 24.651526 -3.909860 2.847803 8.192715 
